PathFileType	4	(X/Y/Z)	distal_points_all_segments.trc
DataRate	CameraRate	NumFrames	NumMarkers	Units	OrigDataRate	OrigDataStartFrame	OrigNumFrames
60.0	60.0	20	18	m	60.0	146	290
Frame#	Time	worldbody			l_thigh			l_shank			l_foot			l_toes			r_thigh			r_shank			r_foot			r_toes			head			torso			l_uarm			l_larm			l_hand			r_uarm			r_larm			r_hand			pelvis_shifted		
		X1	Y1	Z1	X2	Y2	Z2	X3	Y3	Z3	X4	Y4	Z4	X5	Y5	Z5	X6	Y6	Z6	X7	Y7	Z7	X8	Y8	Z8	X9	Y9	Z9	X10	Y10	Z10	X11	Y11	Z11	X12	Y12	Z12	X13	Y13	Z13	X14	Y14	Z14	X15	Y15	Z15	X16	Y16	Z16	X17	Y17	Z17	X18	Y18	Z18
146	2.41667	0.000	0.000	0.000	0.148	0.945	0.383	0.230	0.689	0.103	0.248	0.667	-0.057	0.199	0.821	0.014	0.540	0.987	0.388	0.516	0.723	0.108	0.496	0.682	-0.046	0.517	0.853	0.012	0.320	0.994	1.058	0.326	0.943	0.929	-0.019	0.770	0.792	0.139	0.672	0.640	0.344	0.627	0.523	0.723	0.856	0.811	0.589	0.742	0.645	0.374	0.689	0.552	0.370	0.622	0.641
147	2.43333	0.000	0.000	0.000	0.149	0.950	0.380	0.231	0.690	0.104	0.249	0.666	-0.056	0.199	0.821	0.013	0.538	0.992	0.386	0.515	0.725	0.109	0.497	0.682	-0.046	0.517	0.853	0.011	0.319	0.998	1.036	0.326	0.947	0.909	-0.020	0.771	0.773	0.142	0.674	0.625	0.337	0.617	0.497	0.723	0.858	0.792	0.589	0.740	0.631	0.371	0.697	0.537	0.372	0.620	0.625
148	2.45000	0.000	0.000	0.000	0.151	0.954	0.379	0.231	0.692	0.105	0.249	0.666	-0.055	0.199	0.821	0.012	0.535	0.996	0.383	0.515	0.727	0.109	0.497	0.683	-0.045	0.517	0.854	0.011	0.317	1.002	1.016	0.325	0.950	0.890	-0.021	0.771	0.757	0.144	0.677	0.610	0.340	0.613	0.487	0.723	0.862	0.774	0.588	0.738	0.617	0.370	0.692	0.525	0.374	0.618	0.611
149	2.46667	0.000	0.000	0.000	0.151	0.956	0.379	0.231	0.693	0.105	0.250	0.666	-0.054	0.199	0.821	0.012	0.534	1.000	0.381	0.515	0.728	0.109	0.496	0.683	-0.044	0.517	0.855	0.010	0.317	1.007	0.998	0.325	0.954	0.872	-0.023	0.772	0.743	0.144	0.682	0.597	0.342	0.601	0.487	0.723	0.866	0.757	0.588	0.738	0.604	0.375	0.669	0.516	0.374	0.616	0.598
150	2.48333	0.000	0.000	0.000	0.151	0.958	0.378	0.231	0.693	0.106	0.251	0.665	-0.052	0.199	0.821	0.011	0.532	1.003	0.379	0.516	0.728	0.110	0.496	0.683	-0.044	0.517	0.855	0.010	0.316	1.010	0.981	0.326	0.957	0.856	-0.026	0.775	0.731	0.141	0.683	0.586	0.336	0.581	0.489	0.723	0.869	0.742	0.588	0.739	0.592	0.378	0.647	0.517	0.375	0.614	0.586
151	2.50000	0.000	0.000	0.000	0.150	0.959	0.377	0.230	0.693	0.107	0.251	0.664	-0.052	0.199	0.820	0.011	0.530	1.006	0.376	0.516	0.728	0.110	0.496	0.682	-0.043	0.517	0.855	0.010	0.317	1.011	0.967	0.326	0.960	0.843	-0.028	0.780	0.719	0.139	0.681	0.578	0.326	0.562	0.486	0.723	0.871	0.729	0.587	0.740	0.580	0.382	0.631	0.516	0.377	0.614	0.576
152	2.51667	0.000	0.000	0.000	0.150	0.961	0.375	0.229	0.693	0.107	0.251	0.663	-0.051	0.199	0.819	0.010	0.527	1.009	0.373	0.517	0.728	0.110	0.497	0.681	-0.043	0.517	0.854	0.010	0.317	1.012	0.954	0.325	0.964	0.834	-0.028	0.784	0.707	0.139	0.679	0.571	0.321	0.550	0.482	0.723	0.873	0.718	0.586	0.742	0.570	0.394	0.609	0.509	0.378	0.614	0.567
153	2.53333	0.000	0.000	0.000	0.150	0.963	0.373	0.229	0.693	0.107	0.251	0.662	-0.051	0.199	0.819	0.009	0.524	1.012	0.371	0.517	0.728	0.111	0.499	0.681	-0.042	0.517	0.854	0.010	0.318	1.013	0.944	0.324	0.966	0.827	-0.027	0.787	0.697	0.141	0.677	0.565	0.324	0.549	0.476	0.722	0.877	0.709	0.584	0.745	0.562	0.415	0.584	0.505	0.379	0.615	0.561
154	2.55000	0.000	0.000	0.000	0.150	0.965	0.371	0.229	0.693	0.106	0.250	0.662	-0.052	0.199	0.819	0.009	0.521	1.014	0.369	0.516	0.728	0.111	0.500	0.680	-0.042	0.517	0.854	0.010	0.318	1.014	0.939	0.323	0.968	0.822	-0.025	0.788	0.689	0.142	0.674	0.560	0.331	0.560	0.465	0.721	0.880	0.702	0.583	0.747	0.556	0.429	0.567	0.513	0.379	0.616	0.558
155	2.56667	0.000	0.000	0.000	0.149	0.966	0.368	0.230	0.692	0.106	0.250	0.663	-0.053	0.199	0.819	0.009	0.520	1.015	0.368	0.516	0.728	0.111	0.499	0.680	-0.042	0.516	0.853	0.009	0.317	1.015	0.937	0.323	0.969	0.819	-0.024	0.790	0.685	0.142	0.672	0.559	0.334	0.570	0.457	0.719	0.884	0.697	0.582	0.749	0.552	0.432	0.563	0.522	0.377	0.617	0.557
156	2.58333	0.000	0.000	0.000	0.149	0.966	0.367	0.230	0.691	0.105	0.250	0.663	-0.053	0.199	0.819	0.010	0.519	1.015	0.368	0.517	0.728	0.111	0.498	0.681	-0.042	0.516	0.854	0.009	0.317	1.016	0.939	0.323	0.970	0.821	-0.025	0.793	0.685	0.142	0.673	0.560	0.329	0.563	0.458	0.717	0.887	0.695	0.580	0.751	0.551	0.432	0.563	0.523	0.375	0.618	0.559
157	2.60000	0.000	0.000	0.000	0.150	0.966	0.367	0.230	0.691	0.105	0.250	0.663	-0.054	0.199	0.819	0.010	0.516	1.015	0.368	0.517	0.729	0.111	0.498	0.682	-0.043	0.516	0.855	0.010	0.315	1.016	0.945	0.322	0.971	0.826	-0.027	0.797	0.690	0.141	0.678	0.565	0.319	0.548	0.471	0.715	0.891	0.696	0.579	0.752	0.554	0.431	0.565	0.523	0.374	0.620	0.564
158	2.61667	0.000	0.000	0.000	0.151	0.966	0.369	0.230	0.692	0.105	0.250	0.663	-0.053	0.199	0.819	0.010	0.511	1.015	0.369	0.516	0.729	0.111	0.499	0.684	-0.043	0.516	0.856	0.011	0.314	1.015	0.954	0.321	0.971	0.834	-0.029	0.801	0.699	0.139	0.683	0.573	0.315	0.546	0.485	0.714	0.894	0.700	0.578	0.753	0.559	0.424	0.572	0.528	0.373	0.621	0.570
159	2.63333	0.000	0.000	0.000	0.153	0.965	0.371	0.229	0.693	0.106	0.250	0.663	-0.052	0.199	0.820	0.010	0.506	1.014	0.370	0.514	0.729	0.110	0.499	0.684	-0.044	0.516	0.856	0.011	0.313	1.014	0.966	0.320	0.970	0.844	-0.031	0.804	0.710	0.136	0.687	0.584	0.319	0.564	0.489	0.713	0.896	0.707	0.580	0.753	0.566	0.412	0.583	0.536	0.373	0.623	0.578
160	2.65000	0.000	0.000	0.000	0.155	0.965	0.372	0.228	0.692	0.107	0.250	0.664	-0.052	0.199	0.820	0.011	0.501	1.013	0.370	0.512	0.729	0.110	0.499	0.683	-0.044	0.516	0.855	0.010	0.313	1.014	0.981	0.319	0.970	0.858	-0.032	0.807	0.723	0.134	0.691	0.595	0.325	0.590	0.488	0.710	0.898	0.716	0.582	0.751	0.575	0.403	0.593	0.543	0.371	0.625	0.588
161	2.66667	0.000	0.000	0.000	0.158	0.964	0.372	0.229	0.691	0.106	0.248	0.664	-0.053	0.199	0.820	0.012	0.496	1.011	0.371	0.509	0.728	0.110	0.498	0.682	-0.044	0.516	0.854	0.009	0.313	1.012	0.999	0.318	0.971	0.874	-0.031	0.809	0.737	0.134	0.694	0.606	0.327	0.609	0.493	0.708	0.900	0.727	0.584	0.750	0.586	0.398	0.601	0.549	0.369	0.628	0.600
162	2.68333	0.000	0.000	0.000	0.160	0.962	0.372	0.229	0.690	0.105	0.247	0.665	-0.054	0.199	0.820	0.013	0.491	1.009	0.372	0.506	0.728	0.110	0.498	0.681	-0.045	0.516	0.854	0.009	0.313	1.010	1.019	0.318	0.971	0.893	-0.028	0.810	0.753	0.133	0.696	0.617	0.331	0.614	0.509	0.706	0.901	0.742	0.583	0.752	0.599	0.389	0.615	0.557	0.368	0.632	0.615
163	2.70000	0.000	0.000	0.000	0.161	0.961	0.373	0.230	0.689	0.104	0.246	0.665	-0.055	0.199	0.820	0.013	0.485	1.008	0.374	0.504	0.728	0.110	0.499	0.682	-0.045	0.517	0.854	0.010	0.313	1.007	1.042	0.318	0.970	0.914	-0.025	0.813	0.771	0.133	0.699	0.631	0.335	0.614	0.533	0.705	0.902	0.760	0.582	0.757	0.613	0.373	0.647	0.565	0.367	0.637	0.631
164	2.71667	0.000	0.000	0.000	0.162	0.960	0.374	0.230	0.690	0.104	0.245	0.665	-0.055	0.199	0.821	0.013	0.479	1.006	0.376	0.502	0.729	0.110	0.500	0.682	-0.044	0.517	0.854	0.010	0.313	1.002	1.068	0.318	0.969	0.938	-0.024	0.815	0.791	0.133	0.705	0.646	0.339	0.621	0.557	0.705	0.903	0.783	0.580	0.765	0.629	0.355	0.701	0.572	0.365	0.644	0.647
165	2.73333	0.000	0.000	0.000	0.164	0.960	0.377	0.231	0.691	0.106	0.245	0.665	-0.054	0.199	0.821	0.014	0.475	1.006	0.378	0.501	0.730	0.111	0.500	0.681	-0.043	0.517	0.854	0.010	0.313	0.998	1.095	0.318	0.966	0.963	-0.022	0.817	0.814	0.134	0.713	0.664	0.347	0.644	0.579	0.705	0.905	0.807	0.579	0.774	0.648	0.346	0.771	0.586	0.364	0.651	0.664
